<svg id="Layer_1" enable-background="new 0 0 510 510" height="512" viewBox="0 0 510 510" width="512" xmlns="http://www.w3.org/2000/svg"><g id="XMLID_3021_"><path id="XMLID_3126_" d="m208.402 313.57c5.639-9.089 46.598-75.106 46.598-75.106l10-16.215-10-12.236s-8.288-5.143-12.746-7.908c-8.946 14.419-64.594 104.108-73.557 118.557 4.457 2.766 8.288 5.143 12.746 7.908v15h73.557l10-16.32-10-13.68s-31.767 0-46.598 0z" fill="#e2dff4"/><path id="XMLID_3125_" d="m328.557 328.57c4.458-2.766 8.289-5.143 12.746-7.908-8.946-14.42-64.593-104.109-73.557-118.557-4.458 2.766-8.288 5.142-12.746 7.908v28.451c5.639 9.089 40.922 65.957 46.598 75.106-14.831 0-31.767 0-46.598 0v30h73.557c0-5.246 0-9.754 0-15z" fill="#bebcdd"/><path id="XMLID_3201_" d="m0 397.486c0 62.031 50.465 112.5 112.5 112.5l15-112.5-15-112.5c-62.031 0-112.5 50.466-112.5 112.5z" fill="#bfe85f"/><path id="XMLID_3197_" d="m225 397.486c0-62.03-50.466-112.5-112.5-112.5v225c62.03 0 112.5-50.464 112.5-112.5z" fill="#00cb76"/><path id="XMLID_3192_" d="m30 397.486c0 20.873 7.845 40.691 21.916 55.924l75.584-55.924-15-82.5c-45.49 0-82.5 37.009-82.5 82.5z" fill="#f9f9f9"/><path id="XMLID_3189_" d="m173.084 453.41c14.05-15.21 21.916-35.019 21.916-55.924 0-45.488-37.008-82.5-82.5-82.5v82.5z" fill="#e2dff4"/><path id="XMLID_3186_" d="m51.916 453.41c15.586 16.873 37.377 26.576 60.584 26.576l15-32.5-15-32.5c-26.664 0-49.812 15.678-60.584 38.424z" fill="#a7cafc"/><path id="XMLID_3140_" d="m173.084 453.41c-10.771-22.746-33.919-38.424-60.584-38.424v65c23.159 0 44.965-9.669 60.584-26.576z" fill="#8493fb"/><path id="XMLID_3109_" d="m65 397.486c0 26.191 21.308 47.5 47.5 47.5l15-47.5-15-47.5c-26.191 0-47.5 21.309-47.5 47.5z" fill="#edbba7"/><path id="XMLID_3089_" d="m160 397.486c0-26.19-21.308-47.5-47.5-47.5v95c.285-.06 18.497 1.147 33.572-13.928 8.601-8.601 13.928-20.476 13.928-33.572z" fill="#e8a38b"/><path id="XMLID_3265_" d="m285 397.486c0 62.031 50.465 112.5 112.5 112.5l15-112.5-15-112.5c-62.031 0-112.5 50.466-112.5 112.5z" fill="#dd4e4e"/><path id="XMLID_3262_" d="m510 397.486c0-62.03-50.466-112.5-112.5-112.5v225c62.03 0 112.5-50.464 112.5-112.5z" fill="#c21456"/><path id="XMLID_3259_" d="m315 397.486c0 20.873 7.845 40.691 21.916 55.924l75.584-55.924-15-82.5c-45.49 0-82.5 37.009-82.5 82.5z" fill="#f9f9f9"/><path id="XMLID_3256_" d="m458.084 453.41c14.05-15.21 21.916-35.019 21.916-55.924 0-45.488-37.008-82.5-82.5-82.5v82.5z" fill="#e2dff4"/><path id="XMLID_3253_" d="m336.916 453.41c15.586 16.873 37.377 26.576 60.584 26.576l15-32.5-15-32.5c-26.664 0-49.811 15.678-60.584 38.424z" fill="#f4d844"/><path id="XMLID_3246_" d="m458.084 453.41c-10.772-22.746-33.919-38.424-60.584-38.424v65c23.159 0 44.965-9.669 60.584-26.576z" fill="#ecbd2c"/><path id="XMLID_3230_" d="m350 397.486c0 26.191 21.308 47.5 47.5 47.5l15-47.5-15-47.5c-26.191 0-47.5 21.309-47.5 47.5z" fill="#edbba7"/><path id="XMLID_3208_" d="m445 397.486c0-26.19-21.308-47.5-47.5-47.5v95c.285-.06 18.497 1.147 33.572-13.928 8.601-8.601 13.928-20.476 13.928-33.572z" fill="#e8a38b"/><g id="XMLID_3019_"><path id="XMLID_3114_" d="m142.5 112.514c0 62.03 50.466 112.5 112.5 112.5l15-112.5-15-112.5c-62.031 0-112.5 50.465-112.5 112.5z" fill="#4e6ba6"/><path id="XMLID_3113_" d="m367.5 112.514c0-62.031-50.466-112.5-112.5-112.5v225c62.031 0 112.5-50.467 112.5-112.5z" fill="#28487a"/><path id="XMLID_3104_" d="m172.5 112.514c0 20.872 7.846 40.69 21.916 55.922l75.584-55.922-15-82.5c-45.489 0-82.5 37.007-82.5 82.5z" fill="#f9f9f9"/><path id="XMLID_3103_" d="m315.584 168.436c14.051-15.209 21.916-35.018 21.916-55.922 0-45.489-37.008-82.5-82.5-82.5v82.5z" fill="#e2dff4"/><path id="XMLID_3088_" d="m194.416 168.436c15.586 16.873 37.378 26.578 60.584 26.578l15-32.5-15-32.5c-26.664 0-49.811 15.676-60.584 38.422z" fill="#dd4e4e"/><path id="XMLID_3087_" d="m315.584 168.436c-10.772-22.744-33.919-38.422-60.584-38.422v65c23.159 0 44.965-9.67 60.584-26.578z" fill="#c21456"/><path id="XMLID_3086_" d="m207.5 112.514c0 26.19 21.308 47.5 47.5 47.5l15-47.5-15-47.5c-26.19 0-47.5 21.307-47.5 47.5z" fill="#edbba7"/><path id="XMLID_3085_" d="m302.5 112.514c0-26.191-21.308-47.5-47.5-47.5v95c.285-.062 18.497 1.146 33.572-13.929 8.601-8.601 13.928-20.476 13.928-33.571z" fill="#e8a38b"/></g></g></svg>